<svg width="90" height="90" viewBox="0 0 90 90" fill="none" xmlns="http://www.w3.org/2000/svg">
<path d="M53.3332 81.1111L53.3332 53.3333L81.111 53.3333C83.3211 53.3333 85.4408 52.4553 87.0036 50.8925C88.5664 49.3297 89.4443 47.2101 89.4443 45C89.4443 42.7898 88.5664 40.6702 87.0036 39.1074C85.4408 37.5446 83.3211 36.6667 81.111 36.6667L53.3332 36.6667L53.3332 8.88887C53.3332 6.67874 52.4553 4.55912 50.8925 2.99632C49.3296 1.43351 47.21 0.55554 44.9999 0.55554C42.7898 0.55554 40.6701 1.43351 39.1073 2.99632C37.5445 4.55912 36.6666 6.67874 36.6666 8.88887L36.6666 36.6667L8.88878 36.6666C6.67865 36.6666 4.55903 37.5446 2.99623 39.1074C1.43342 40.6702 0.555449 42.7898 0.555448 45C0.555448 47.2101 1.43342 49.3297 2.99623 50.8925C4.55903 52.4553 6.67865 53.3333 8.88878 53.3333L36.6666 53.3333L36.6666 81.1111C36.6666 83.3212 37.5445 85.4408 39.1073 87.0036C40.6701 88.5664 42.7898 89.4444 44.9999 89.4444C47.21 89.4444 49.3296 88.5665 50.8924 87.0036C52.4552 85.4408 53.3332 83.3212 53.3332 81.1111Z" fill="#FFE700"/>
</svg>
