<svg width="48" height="49" viewBox="0 0 48 49" fill="none" xmlns="http://www.w3.org/2000/svg">
<path d="M28.5 44.3611L28.5 29.0833L43.5 29.0833C44.6935 29.0833 45.8381 28.6004 46.682 27.7409C47.5259 26.8813 48 25.7155 48 24.5C48 23.2844 47.5259 22.1186 46.682 21.2591C45.8381 20.3995 44.6935 19.9166 43.5 19.9166L28.5 19.9166L28.5 4.63884C28.5 3.42327 28.0259 2.25748 27.182 1.39794C26.3381 0.538396 25.1935 0.0555105 24 0.0555104C22.8065 0.0555104 21.6619 0.538396 20.818 1.39794C19.9741 2.25748 19.5 3.42327 19.5 4.63884L19.5 19.9166L4.5 19.9166C3.30653 19.9166 2.16194 20.3995 1.31802 21.259C0.474112 22.1186 2.79933e-06 23.2844 2.7462e-06 24.5C2.69306e-06 25.7155 0.474112 26.8813 1.31802 27.7409C2.16194 28.6004 3.30653 29.0833 4.5 29.0833L19.5 29.0833L19.5 44.3611C19.5 45.5766 19.9741 46.7424 20.818 47.602C21.6619 48.4615 22.8065 48.9444 24 48.9444C25.1935 48.9444 26.3381 48.4615 27.182 47.602C28.0259 46.7424 28.5 45.5766 28.5 44.3611Z" fill="black" fill-opacity="0.35"/>
</svg>
