<?xml version="1.0" encoding="UTF-8"?>
<svg version="1.1" xmlns="http://www.w3.org/2000/svg" width="88" height="88">
<path d="M0 0 C1.26809968 0.7231367 2.52578194 1.46479142 3.7734375 2.22265625 C4.78724487 2.81784058 4.78724487 2.81784058 5.8215332 3.42504883 C7.94614356 4.68788429 10.04959679 5.97998665 12.1484375 7.28515625 C12.84469238 7.71634766 13.54094727 8.14753906 14.25830078 8.59179688 C16.29644301 9.86736888 18.31919235 11.16355419 20.3359375 12.47265625 C20.94711426 12.86380615 21.55829102 13.25495605 22.18798828 13.65795898 C28.74672124 18.03501372 32.3199982 22.4082946 34.1484375 30.28515625 C34.32645272 32.85865168 34.40964639 35.43989007 34.4140625 38.01953125 C34.41597595 38.73820374 34.4178894 39.45687622 34.41986084 40.19732666 C34.42121383 41.71000521 34.41757974 43.22269573 34.40917969 44.73535156 C34.39853049 47.01524876 34.40907226 49.2943467 34.421875 51.57421875 C34.44483275 74.47824247 34.44483275 74.47824247 28.1484375 81.28515625 C20.29303607 85.58339477 12.03456633 85.44324984 3.31640625 85.453125 C2.28461746 85.4564534 1.25282867 85.4597818 0.18977356 85.46321106 C-1.98619137 85.46825703 -4.16216399 85.47062011 -6.33813477 85.47045898 C-9.64287253 85.47264225 -12.94727444 85.49081424 -16.25195312 85.50976562 C-18.37499887 85.51270079 -20.49804618 85.51468476 -22.62109375 85.515625 C-24.08564751 85.52640327 -24.08564751 85.52640327 -25.57978821 85.53739929 C-42.96366617 85.48035889 -42.96366617 85.48035889 -48.8515625 80.28515625 C-53.59162106 73.15894576 -54.00381914 65.65487681 -54.0546875 57.26171875 C-54.06038757 56.51610687 -54.06608765 55.770495 -54.07196045 55.00228882 C-54.08134984 53.43415724 -54.0879201 51.86600646 -54.09179688 50.29785156 C-54.10150804 47.9234724 -54.13259039 45.54995822 -54.1640625 43.17578125 C-54.3003422 25.30293375 -54.3003422 25.30293375 -49.27856445 19.45263672 C-43.9407145 14.43923216 -37.54921935 10.7694267 -31.2890625 7.03515625 C-30.28681641 6.42414062 -29.28457031 5.813125 -28.25195312 5.18359375 C-25.47375015 3.50825871 -22.67642022 1.88034476 -19.8515625 0.28515625 C-19.20590332 -0.08544922 -18.56024414 -0.45605469 -17.89501953 -0.83789062 C-11.90034589 -3.88269463 -5.83495482 -2.91444311 0 0 Z M-24.8515625 56.28515625 C-25.1815625 57.27515625 -25.5115625 58.26515625 -25.8515625 59.28515625 C-22.15806705 63.38904008 -19.12560312 65.02424579 -13.6171875 65.65625 C-5.67963027 65.80618164 -0.30207822 65.06331604 6.1484375 60.28515625 C5.8184375 58.96515625 5.4884375 57.64515625 5.1484375 56.28515625 C2.15715982 56.70254383 -0.45861875 57.10936562 -3.2265625 58.34765625 C-9.95863254 60.75196698 -14.72233841 59.11402891 -20.8515625 56.28515625 C-22.1715625 56.28515625 -23.4915625 56.28515625 -24.8515625 56.28515625 Z " fill="#4B5100" transform="translate(53.8515625,2.71484375)"/>
</svg>
