<?xml version="1.0" encoding="UTF-8"?>
<svg version="1.1" xmlns="http://www.w3.org/2000/svg" width="179" height="156">
<path d="M0 0 C4.17768463 1.0941555 6.65778119 4.83668168 8.94702148 8.31567383 C9.50204346 9.30978271 10.05706543 10.3038916 10.62890625 11.328125 C11.26256104 12.4517041 11.89621582 13.5752832 12.54907227 14.73291016 C13.04275803 15.62154755 13.04275803 15.62154755 13.54641724 16.52813721 C14.9482386 19.05134046 16.3680172 21.56428771 17.7865448 24.078125 C18.51390064 25.36763096 19.24030648 26.65767323 19.96577454 27.94824219 C23.31190533 33.89750741 26.74224103 39.79579748 30.1953125 45.68359375 C35.03816026 53.95796867 39.84809518 62.25046701 44.6328125 70.55859375 C50.00597823 79.88703532 55.41284212 89.19498421 60.84570312 98.48876953 C63.95590679 103.81362841 67.0537354 109.1453617 70.1328125 114.48828125 C70.46772705 115.06942688 70.8026416 115.65057251 71.14770508 116.24932861 C72.76155136 119.05070558 74.37378139 121.85300163 75.984375 124.65625 C76.56960937 125.67332031 77.15484375 126.69039063 77.7578125 127.73828125 C78.31936035 128.71547119 78.8809082 129.69266113 79.45947266 130.69946289 C81.569014 134.3039039 83.77207728 137.8472614 86.00537109 141.3762207 C87.92006489 145.08246753 87.82876939 147.45244808 87.1328125 151.55859375 C85.52270412 154.24980068 85.52270412 154.24980068 83.1328125 156.55859375 C80.01525211 157.18500614 80.01525211 157.18500614 76.26954651 157.18678284 C75.57953629 157.19387722 74.88952607 157.20097161 74.17860645 157.20828098 C71.86663244 157.2258825 69.55633498 157.20774755 67.24438477 157.18969727 C65.5868961 157.19483537 63.92941288 157.20211583 62.27194214 157.21138 C57.76971556 157.22991777 53.26808006 157.21694008 48.76587796 157.19728971 C44.05565771 157.18091866 39.34547536 157.18971407 34.63523865 157.19480896 C26.72377062 157.1993321 18.81253884 157.18344759 10.90112305 157.15551758 C1.75447151 157.12347572 -7.39175363 157.12347639 -16.5384354 157.14073235 C-25.33561006 157.1565977 -34.13262839 157.14986311 -42.92979622 157.13279533 C-46.67413557 157.12592272 -50.4183497 157.12695948 -54.1626873 157.13434029 C-58.57297366 157.1420028 -62.98277501 157.12987829 -67.39297867 157.10249138 C-69.0114873 157.09560565 -70.63004122 157.09551162 -72.24854851 157.10270691 C-74.45855252 157.11139945 -76.66705903 157.09545154 -78.87693787 157.07325745 C-80.73162768 157.06904706 -80.73162768 157.06904706 -82.62378597 157.06475163 C-86.46577841 156.46517901 -88.13141676 155.26973021 -90.8671875 152.55859375 C-92.36303111 148.52311752 -91.34157991 144.65859727 -89.68310547 140.81298828 C-87.9903795 137.67868107 -86.17697673 134.65154498 -84.3046875 131.62109375 C-83.27222404 129.89379997 -82.23979049 128.16648736 -81.20924377 126.43804932 C-80.14137588 124.65225335 -79.06537643 122.87155128 -77.98828125 121.09130859 C-74.67131464 115.59050881 -71.49739485 110.00706088 -68.3046875 104.43359375 C-62.94761665 95.13580117 -57.5508333 85.86168637 -52.13647461 76.59716797 C-47.85473779 69.26546804 -43.60512565 61.91568499 -39.3671875 54.55859375 C-32.7540506 43.08214945 -26.11367933 31.62213164 -19.41259766 20.19677734 C-18.41752456 18.4980791 -17.42482127 16.79798929 -16.43505859 15.09619141 C-15.18956558 12.95488924 -13.93603432 10.81853981 -12.6796875 8.68359375 C-12.1539917 7.77347534 -12.1539917 7.77347534 -11.61767578 6.8449707 C-8.50235019 1.59357692 -6.09956798 0.37075805 0 0 Z M-8.8671875 64.55859375 C-10.91969189 68.66360253 -10.14038584 73.92176319 -10.1796875 78.43359375 C-10.20869141 79.53574219 -10.23769531 80.63789062 -10.26757812 81.7734375 C-10.27595703 82.83433594 -10.28433594 83.89523438 -10.29296875 84.98828125 C-10.30755127 85.96007324 -10.32213379 86.93186523 -10.3371582 87.93310547 C-9.73271156 91.30984271 -8.52150327 92.45376791 -5.8671875 94.55859375 C-2.18267032 95.73450349 -0.58464475 95.89340713 2.9453125 94.24609375 C5.22196876 92.74280787 5.22196876 92.74280787 6.1328125 90.55859375 C6.42838804 86.60644299 6.4108011 82.64550252 6.4453125 78.68359375 C6.48881836 77.03037109 6.48881836 77.03037109 6.53320312 75.34375 C6.54158203 74.28285156 6.54996094 73.22195312 6.55859375 72.12890625 C6.57317627 71.15711426 6.58775879 70.18532227 6.6027832 69.18408203 C5.99833656 65.80734479 4.78712827 64.66341959 2.1328125 62.55859375 C-2.60126668 61.04771741 -4.94712478 61.53454536 -8.8671875 64.55859375 Z M-9.8671875 113.55859375 C-9.8671875 119.16859375 -9.8671875 124.77859375 -9.8671875 130.55859375 C-4.5871875 130.55859375 0.6928125 130.55859375 6.1328125 130.55859375 C6.1328125 124.94859375 6.1328125 119.33859375 6.1328125 113.55859375 C0.8528125 113.55859375 -4.4271875 113.55859375 -9.8671875 113.55859375 Z " fill="#4B5200" transform="translate(91.8671875,-0.55859375)"/>
</svg>
