<?xml version="1.0" encoding="UTF-8"?>
<svg version="1.1" xmlns="http://www.w3.org/2000/svg" width="104" height="104">
<path d="M0 0 C1.10472153 -0.01253311 2.20944305 -0.02506622 3.34764099 -0.03797913 C4.53624222 -0.02472092 5.72484344 -0.01146271 6.94946289 0.00219727 C8.78765343 -0.00142067 8.78765343 -0.00142067 10.66297913 -0.00511169 C13.25451899 -0.0041322 15.84607952 0.00928535 18.4375 0.03417969 C22.40380015 0.06844525 26.36786814 0.05485178 30.33422852 0.03540039 C32.85181613 0.04229976 35.36939798 0.05197295 37.88696289 0.06469727 C39.66682838 0.05725746 39.66682838 0.05725746 41.48265076 0.04966736 C49.56815235 0.16524435 49.56815235 0.16524435 53.74145508 2.28662109 C55.97999521 5.29736351 56.06435929 6.97770525 55.97290039 10.70922852 C55.95678711 11.86938477 55.94067383 13.02954102 55.92407227 14.22485352 C55.88217773 15.43141602 55.8402832 16.63797852 55.79711914 17.88110352 C55.77456055 19.10313477 55.75200195 20.32516602 55.72875977 21.58422852 C55.66983672 24.60108853 55.58761179 27.61547866 55.48461914 30.63110352 C56.08790039 30.59629883 56.69118164 30.56149414 57.31274414 30.52563477 C58.51157227 30.4850293 58.51157227 30.4850293 59.73461914 30.44360352 C60.52352539 30.40879883 61.31243164 30.37399414 62.12524414 30.33813477 C65.2791917 30.72976733 66.41132545 31.17854167 68.48461914 33.63110352 C69.09193241 36.64364641 69.04463635 39.61747969 69.01586914 42.68188477 C69.0216095 44.0192292 69.0216095 44.0192292 69.02746582 45.3835907 C69.03018815 47.27071256 69.02280449 49.15787195 69.00610352 51.04492188 C68.98477317 53.92282227 69.00585434 56.79820473 69.03149414 59.67602539 C69.02884944 61.51131733 69.02372152 63.34660772 69.01586914 65.18188477 C69.02396606 66.03833084 69.03206299 66.89477692 69.04040527 67.7771759 C68.956549 73.16899359 68.23650261 76.47047128 64.48461914 80.63110352 C60.25208808 83.14548792 57.10831575 84.01246213 52.20727539 84.05102539 C50.98580811 84.06693726 49.76434082 84.08284912 48.50585938 84.09924316 C47.1994751 84.09944458 45.89309082 84.099646 44.54711914 84.09985352 C43.18000988 84.10696287 41.81290357 84.11466299 40.44580078 84.1229248 C37.58788748 84.1363342 34.7302503 84.13795393 31.87231445 84.13208008 C28.22032267 84.12617894 24.56965804 84.15680624 20.91792297 84.19719696 C18.09705541 84.22311405 15.27650609 84.22594803 12.45553589 84.2223053 C10.45807592 84.22480846 8.46068316 84.24946975 6.46337891 84.27453613 C5.24191162 84.26523071 4.02044434 84.25592529 2.76196289 84.24633789 C1.69196045 84.24839233 0.62195801 84.25044678 -0.48046875 84.25256348 C-4.69819208 83.38889887 -6.62981649 81.79572554 -9.51538086 78.63110352 C-10.26382446 75.29211426 -10.26382446 75.29211426 -10.26000977 71.44165039 C-10.2673111 70.73694107 -10.27461243 70.03223175 -10.28213501 69.3061676 C-10.29829259 66.98640245 -10.2711837 64.66945639 -10.24194336 62.34985352 C-10.24090543 60.73229982 -10.24194363 59.11474359 -10.2449646 57.49719238 C-10.2447854 54.1109438 -10.22398154 50.72565001 -10.18774414 47.33959961 C-10.14236751 43.00491037 -10.14128307 38.67161525 -10.15477943 34.33675385 C-10.16147107 30.9977383 -10.14817677 27.65903909 -10.12852097 24.32008362 C-10.12083727 22.72214922 -10.11851213 21.12417957 -10.12169266 19.52622986 C-10.12243676 17.29032691 -10.09712534 15.05619298 -10.06469727 12.82055664 C-10.05548248 11.54990356 -10.0462677 10.27925049 -10.03677368 8.97009277 C-9.05568825 2.6872412 -6.31541893 0.00625617 0 0 Z M8.48461914 24.63110352 C8.77445183 27.93793817 8.77445183 27.93793817 10.48461914 30.63110352 C14.62424197 30.8841159 18.7756791 30.816329 22.92211914 30.81860352 C24.67878906 30.83697266 24.67878906 30.83697266 26.47094727 30.85571289 C27.58791992 30.85764648 28.70489258 30.85958008 29.85571289 30.86157227 C30.88623779 30.86568115 31.9167627 30.86979004 32.97851562 30.87402344 C35.65709318 30.8823542 35.65709318 30.8823542 37.48461914 28.63110352 C37.19478646 25.32426886 37.19478646 25.32426886 35.48461914 22.63110352 C31.34499631 22.37809113 27.19355918 22.44587803 23.04711914 22.44360352 C21.29044922 22.42523438 21.29044922 22.42523438 19.49829102 22.40649414 C18.38131836 22.40456055 17.2643457 22.40262695 16.11352539 22.40063477 C15.08300049 22.39652588 14.05247559 22.39241699 12.99072266 22.38818359 C10.3121451 22.37985284 10.3121451 22.37985284 8.48461914 24.63110352 Z M55.48461914 39.63110352 C55.48461914 50.85110352 55.48461914 62.07110352 55.48461914 73.63110352 C56.80461914 72.97110352 58.12461914 72.31110352 59.48461914 71.63110352 C59.48461914 61.07110352 59.48461914 50.51110352 59.48461914 39.63110352 C58.16461914 39.63110352 56.84461914 39.63110352 55.48461914 39.63110352 Z M8.48461914 46.63110352 C8.6496956 49.20650565 8.6496956 49.20650565 9.48461914 51.63110352 C12.42185692 53.09972241 15.09054271 52.87903756 18.35961914 52.94360352 C20.21200195 52.99967773 20.21200195 52.99967773 22.10180664 53.05688477 C25.99998822 52.56623604 27.10306506 51.66489226 29.48461914 48.63110352 C28.82461914 47.31110352 28.16461914 45.99110352 27.48461914 44.63110352 C24.69269709 44.57729774 21.90180504 44.53752683 19.10961914 44.50610352 C18.31555664 44.4893457 17.52149414 44.47258789 16.70336914 44.45532227 C12.1173541 44.19757071 12.1173541 44.19757071 8.48461914 46.63110352 Z " fill="#4D5200" transform="translate(22.515380859375,12.368896484375)"/>
</svg>
