<svg width="22" height="22" viewBox="0 0 22 22" fill="none" xmlns="http://www.w3.org/2000/svg">
<path fill-rule="evenodd" clip-rule="evenodd" d="M0.4375 3.6875C0.4375 2.82555 0.77991 1.9989 1.3894 1.3894C1.9989 0.77991 2.82555 0.4375 3.6875 0.4375H6.125C6.98695 0.4375 7.8136 0.77991 8.4231 1.3894C9.03259 1.9989 9.375 2.82555 9.375 3.6875V18.3125C9.375 19.1745 9.03259 20.0011 8.4231 20.6106C7.8136 21.2201 6.98695 21.5625 6.125 21.5625H3.6875C2.82555 21.5625 1.9989 21.2201 1.3894 20.6106C0.77991 20.0011 0.4375 19.1745 0.4375 18.3125V3.6875ZM12.625 3.6875C12.625 2.82555 12.9674 1.9989 13.5769 1.3894C14.1864 0.77991 15.013 0.4375 15.875 0.4375H18.3125C19.1745 0.4375 20.0011 0.77991 20.6106 1.3894C21.2201 1.9989 21.5625 2.82555 21.5625 3.6875V18.3125C21.5625 19.1745 21.2201 20.0011 20.6106 20.6106C20.0011 21.2201 19.1745 21.5625 18.3125 21.5625H15.875C15.013 21.5625 14.1864 21.2201 13.5769 20.6106C12.9674 20.0011 12.625 19.1745 12.625 18.3125V3.6875Z" fill="#A36D05"/>
</svg>
